<?xml version="1.0" encoding="utf-8"?>
<!DOCTYPE svg PUBLIC "-//W3C//DTD SVG 1.1//EN" "http://www.w3.org/Graphics/SVG/1.1/DTD/svg11.dtd">
<svg version="1.1"
	 xmlns="http://www.w3.org/2000/svg" xmlns:xlink="http://www.w3.org/1999/xlink"
	 x="0px" y="0px" width="500px" height="500px" viewBox="-40.6 -37.3 500 500" style="enable-background:new -40.6 -37.3 500 500;"
	 xml:space="preserve">

<style type="text/css">
<![CDATA[
    .delete {
        fill: #bb1e17;
    }
]]>
</style>
<defs>
</defs>
<path class="delete" d="M209.3,323.1l-97.2,97.2c-7.3,7.3-20.8,5.7-30-3.5L5.2,339.9
	c-9.3-9.3-3.3-22.7,4-30l104.7-97.2v0L9.2,115.5c-7.3-7.3-9.5-20.8-0.2-30L84,8.6c9.3-9.3,22.1-10.8,29.4-3.5l96.5,97.2v0l96.9-97.2
	c7.3-7.3,20.6-5.7,29.9,3.5l76.8,76.9c9.3,9.3,10.8,22.7,3.5,30c0,0-97.2,97.2-97.2,97.2l97.2,97.2c7.3,7.3,5.7,20.8-3.5,30
	l-76.9,76.9c-9.3,9.3-22.7,10.8-30,3.5L209.3,323.1"/>
</svg>
