<?xml version="1.0" encoding="UTF-8" standalone="no"?>
<svg 
		version="1.1"
		xmlns="http://www.w3.org/2000/svg"
		xmlns:xlink="http://www.w3.org/1999/xlink"
		viewBox="-1270 -1220 2540 2400"
		width="100%"
		height="100%">
	
	<style type="text/css">
			.color > :nth-child(1) {fill: #6c0100; stroke: #6c0100; stroke-width: 6; stroke-linejoin:bevel;} /* Red */
			.color > :nth-child(2) {fill: #bb1e17; stroke: #bb1e17; stroke-width: 6; stroke-linejoin:bevel;}
			.color > :nth-child(3) {fill: #40006c; stroke: #40006c; stroke-width: 6; stroke-linejoin:bevel;} /* Purple */
			.color > :nth-child(4) {fill: #7A00bc; stroke: #7A00bc; stroke-width: 6; stroke-linejoin:bevel;}
			.color > :nth-child(5) {fill: #02356d; stroke: #02356d; stroke-width: 6; stroke-linejoin:bevel;} /* Blue */
			.color > :nth-child(6) {fill: #02579e; stroke: #02579e; stroke-width: 6; stroke-linejoin:bevel;}
			.color > :nth-child(7) {fill: #136c00; stroke: #136c00; stroke-width: 6; stroke-linejoin:bevel;} /* Green */
			.color > :nth-child(8) {fill: #3bbc00; stroke: #3bbc00; stroke-width: 6; stroke-linejoin:bevel;}
			.color > :nth-child(9) {fill: #c27400; stroke: #c27400; stroke-width: 6; stroke-linejoin:bevel;} /* Yellow */
			.color > :nth-child(10){fill: #f4d538; stroke: #f4d538; stroke-width: 6; stroke-linejoin:bevel;}
			.border > * {fill: white; stroke: white; stroke-width: 8;}
			.m10 {display: none}
	</style>
	
	<defs>
		<polygon id="E10"  points="  0, 0      224, -688   1052, -688   1256, -62    809, 263   724, 0    "/>
		<polygon id="M10a" points=" 32, -100   191, -588    980, -588   1138, -100                        "/>
		<polygon id="M10b" points="                                     1138, -100   777, 163   691, -100 "/>
		
		<polygon id="E12"  points="  0, 0      224, -688   1073, -688   1273, -74    809, 263   724, 0    "/>
		<polygon id="M12a" points=" 39, -120   185, -568    986, -568   1132, -120                        "/>
		<polygon id="M12b" points="                                     1132, -120   770, 143   685, -120 "/>

		<polygon id="E14"  points="  0, 0      224, -688   1094, -688   1290, -87    809, 263   724, 0    "/>
		<polygon id="M14a" points=" 45, -140   178, -548    993, -548   1125, -140                        "/>
		<polygon id="M14b" points="                                     1125, -140   764, 123   678, -140 "/>

		<polygon id="E16"  points="  0, 0      224, -688   1115, -688   1307, -99    809, 263   724, 0    "/>
		<polygon id="M16a" points=" 52, -160   172, -528    999, -528   1119, -160                        "/>
		<polygon id="M16b" points="                                     1119, -160   757, 103   672, -160 "/>
	</defs>
	
	<g class="logo m10">
		<g class="border">
			<use xlink:href="#E10" transform="rotate(0)"/>
			<use xlink:href="#E10" transform="rotate(72)"/>
			<use xlink:href="#E10" transform="rotate(144)"/>
			<use xlink:href="#E10" transform="rotate(216)"/>
			<use xlink:href="#E10" transform="rotate(288)"/>
		</g>
		<g class="color">
			<use xlink:href="#M10b" transform="rotate(0)"/>
			<use xlink:href="#M10a" transform="rotate(0)"/>
			<use xlink:href="#M10b" transform="rotate(72)"/>
			<use xlink:href="#M10a" transform="rotate(72)"/>
			<use xlink:href="#M10b" transform="rotate(144)"/>
			<use xlink:href="#M10a" transform="rotate(144)"/>
			<use xlink:href="#M10b" transform="rotate(216)"/>
			<use xlink:href="#M10a" transform="rotate(216)"/>
			<use xlink:href="#M10b" transform="rotate(288)"/>
			<use xlink:href="#M10a" transform="rotate(288)"/>
		</g>
	</g>
	
	<g class="logo m12">
		<g class="border">
			<use xlink:href="#E12" transform="rotate(0)"/>
			<use xlink:href="#E12" transform="rotate(72)"/>
			<use xlink:href="#E12" transform="rotate(144)"/>
			<use xlink:href="#E12" transform="rotate(216)"/>
			<use xlink:href="#E12" transform="rotate(288)"/>
		</g>
		<g class="color">
			<use xlink:href="#M12b" transform="rotate(0)"/>
			<use xlink:href="#M12a" transform="rotate(0)"/>
			<use xlink:href="#M12b" transform="rotate(72)"/>
			<use xlink:href="#M12a" transform="rotate(72)"/>
			<use xlink:href="#M12b" transform="rotate(144)"/>
			<use xlink:href="#M12a" transform="rotate(144)"/>
			<use xlink:href="#M12b" transform="rotate(216)"/>
			<use xlink:href="#M12a" transform="rotate(216)"/>
			<use xlink:href="#M12b" transform="rotate(288)"/>
			<use xlink:href="#M12a" transform="rotate(288)"/>
		</g>
	</g>

	<g class="logo m14">
		<g class="border">
			<use xlink:href="#E14" transform="rotate(0)"/>
			<use xlink:href="#E14" transform="rotate(72)"/>
			<use xlink:href="#E14" transform="rotate(144)"/>
			<use xlink:href="#E14" transform="rotate(216)"/>
			<use xlink:href="#E14" transform="rotate(288)"/>
		</g>
		<g class="color">
			<use xlink:href="#M14b" transform="rotate(0)"/>
			<use xlink:href="#M14a" transform="rotate(0)"/>
			<use xlink:href="#M14b" transform="rotate(72)"/>
			<use xlink:href="#M14a" transform="rotate(72)"/>
			<use xlink:href="#M14b" transform="rotate(144)"/>
			<use xlink:href="#M14a" transform="rotate(144)"/>
			<use xlink:href="#M14b" transform="rotate(216)"/>
			<use xlink:href="#M14a" transform="rotate(216)"/>
			<use xlink:href="#M14b" transform="rotate(288)"/>
			<use xlink:href="#M14a" transform="rotate(288)"/>
		</g>
	</g>

	<g class="logo m16">
		<g class="border" filter = "url(#shadow)">
			<use xlink:href="#E16" transform="rotate(0)"/>
			<use xlink:href="#E16" transform="rotate(72)"/>
			<use xlink:href="#E16" transform="rotate(144)"/>
			<use xlink:href="#E16" transform="rotate(216)"/>
			<use xlink:href="#E16" transform="rotate(288)"/>
		</g>
		<g class="color">
			<use xlink:href="#M16b" transform="rotate(0)"/>
			<use xlink:href="#M16a" transform="rotate(0)"/>
			<use xlink:href="#M16b" transform="rotate(72)"/>
			<use xlink:href="#M16a" transform="rotate(72)"/>
			<use xlink:href="#M16b" transform="rotate(144)"/>
			<use xlink:href="#M16a" transform="rotate(144)"/>
			<use xlink:href="#M16b" transform="rotate(216)"/>
			<use xlink:href="#M16a" transform="rotate(216)"/>
			<use xlink:href="#M16b" transform="rotate(288)"/>
			<use xlink:href="#M16a" transform="rotate(288)"/>
		</g>
	</g>
	
</svg>
