<?xml version="1.0" encoding="utf-8"?>
<!DOCTYPE svg PUBLIC "-//W3C//DTD SVG 1.1//EN" "http://www.w3.org/Graphics/SVG/1.1/DTD/svg11.dtd">
<svg version="1.1"
	 xmlns="http://www.w3.org/2000/svg"
	 x="0px" y="0px" width="100%" height="32px" viewBox="0 0 1000 520" style="enable-background:new 0 0 1000 520;"
	 xml:space="preserve">
<style type="text/css">
<![CDATA[
	.w3, .c1, .c2 {
		fill: white;
		stroke: #2571AB;
	}
]]>
</style>
<defs>
	<filter id="inner-shadow">   
		<feOffset dx='15' dy='15'/>  
		<feGaussianBlur stdDeviation='10' result='offset-blur'/>    
		<feComposite operator='out' in='SourceGraphic' in2='offset-blur' result='inverse' />    
		<feFlood flood-color='black' flood-opacity='1' result='color' />    
		<feComposite operator='in' in='color' in2='inverse' result='shadow' />    
		<feComposite operator='over' in='shadow' in2='SourceGraphic' />
	</filter>
</defs>
<g class="w3c" filter="url(#inner-shadow)">
	<path class="w3" d="M0,1h67.7l92.9,315.3l62.7-211.9L192.5,1H260l93.1,315L446,1h252.7l-0.4,31.5l-94.5,162.8
		C763.2,246,720.4,520,571.8,520c-69.8,0-109.7-48.3-129.7-106l52.4-21.6c17.4,38.7,38.8,63,74.9,63c78.7,0,99.8-200.5-15.5-204.2
		l-38.1,0l0.1-31.4l89.7-154.6l-111.2,0.1L359.6,519.6h-6.7l-96.1-320.7l-96.2,320.7H154L0,1z"/>
	<path class="c1" d="M984.9,0l11.4,65.9L957.5,140C880.2-2.9,749.4,113.5,778.2,302.3c-79.7-181.2,61.2-410.1,169.1-226.8L984.9,0z"/>
	<path class="c2" d="M990.1,375.2l9.9,51.4c-80.3,147.9-219.7,114.1-268.6-60.7C758.6,430.9,879.6,561.3,990.1,375.2z"/>
</g>
</svg>
